<svg xmlns="http://www.w3.org/2000/svg" xmlns:xlink="http://www.w3.org/1999/xlink" width="500" zoomAndPan="magnify" viewBox="0 0 375 374.999991" height="500" preserveAspectRatio="xMidYMid meet" version="1.0"><defs><clipPath id="64a56425fa"><path d="M 1 10.804688 L 372.75 10.804688 L 372.75 337 L 1 337 Z M 1 10.804688 " clip-rule="nonzero"/></clipPath></defs><g clip-path="url(#64a56425fa)"><path fill="#fff" d="M 361.347656 206.960938 C 356.230469 200.4375 350.414062 194.617188 343.902344 189.492188 C 336.066406 183.542969 327.617188 178.652344 318.5625 174.820312 C 309.640625 171.105469 300.539062 167.90625 291.257812 165.21875 C 281.976562 162.527344 272.574219 160.367188 263.054688 158.734375 C 253.53125 157.105469 243.945312 156.011719 234.300781 155.457031 C 224.65625 154.902344 215.007812 154.890625 205.363281 155.421875 C 208.195312 133.175781 213.242188 115.914062 221.023438 101.648438 C 238.222656 70.136719 273.835938 49 309.703125 49 L 310.011719 49 C 310.636719 49 311.257812 48.972656 311.878906 48.910156 C 312.5 48.851562 313.113281 48.757812 313.726562 48.636719 C 314.335938 48.515625 314.941406 48.367188 315.539062 48.1875 C 316.136719 48.003906 316.722656 47.796875 317.296875 47.558594 C 317.875 47.320312 318.4375 47.054688 318.988281 46.761719 C 319.539062 46.464844 320.070312 46.144531 320.589844 45.800781 C 321.109375 45.453125 321.609375 45.082031 322.09375 44.6875 C 322.574219 44.292969 323.035156 43.875 323.476562 43.433594 C 323.917969 42.992188 324.335938 42.53125 324.734375 42.050781 C 325.128906 41.566406 325.5 41.066406 325.847656 40.546875 C 326.195312 40.03125 326.515625 39.496094 326.808594 38.945312 C 327.105469 38.394531 327.371094 37.832031 327.609375 37.257812 C 327.851562 36.679688 328.0625 36.09375 328.242188 35.496094 C 328.425781 34.898438 328.578125 34.292969 328.699219 33.683594 C 328.820312 33.070312 328.914062 32.453125 328.976562 31.832031 C 329.039062 31.210938 329.070312 30.589844 329.070312 29.964844 C 329.070312 29.339844 329.039062 28.71875 328.980469 28.097656 C 328.921875 27.476562 328.828125 26.859375 328.707031 26.246094 C 328.589844 25.636719 328.4375 25.03125 328.257812 24.433594 C 328.078125 23.835938 327.867188 23.25 327.628906 22.671875 C 327.394531 22.09375 327.128906 21.53125 326.835938 20.980469 C 326.542969 20.429688 326.222656 19.894531 325.875 19.375 C 325.53125 18.855469 325.160156 18.351562 324.765625 17.871094 C 324.371094 17.386719 323.953125 16.925781 323.515625 16.484375 C 323.074219 16.039062 322.613281 15.621094 322.132812 15.226562 C 321.652344 14.828125 321.152344 14.457031 320.632812 14.109375 C 320.117188 13.761719 319.582031 13.441406 319.03125 13.144531 C 318.484375 12.847656 317.921875 12.582031 317.34375 12.34375 C 316.769531 12.101562 316.183594 11.890625 315.585938 11.710938 C 314.992188 11.527344 314.386719 11.375 313.777344 11.253906 C 313.164062 11.128906 312.550781 11.035156 311.929688 10.972656 C 311.308594 10.914062 310.6875 10.878906 310.0625 10.878906 L 309.703125 10.878906 C 306.605469 10.914062 303.511719 11.046875 300.421875 11.28125 C 297.328125 11.519531 294.25 11.855469 291.183594 12.292969 C 288.113281 12.730469 285.0625 13.269531 282.03125 13.90625 C 278.996094 14.546875 275.988281 15.285156 273.003906 16.121094 C 270.019531 16.957031 267.066406 17.890625 264.140625 18.917969 C 261.21875 19.949219 258.332031 21.074219 255.480469 22.292969 C 252.632812 23.515625 249.824219 24.828125 247.0625 26.230469 C 244.296875 27.632812 241.582031 29.128906 238.917969 30.710938 C 236.25 32.292969 233.640625 33.960938 231.082031 35.714844 C 228.527344 37.46875 226.027344 39.304688 223.59375 41.222656 C 221.15625 43.144531 218.785156 45.140625 216.480469 47.210938 C 214.175781 49.285156 211.941406 51.433594 209.773438 53.65625 C 207.609375 55.875 205.519531 58.164062 203.507812 60.523438 C 201.492188 62.882812 199.554688 65.304688 197.699219 67.789062 C 195.84375 70.273438 194.070312 72.816406 192.382812 75.417969 C 190.691406 78.019531 189.089844 80.675781 187.574219 83.382812 C 176.285156 104.085938 169.542969 128.589844 166.453125 160.382812 C 143.9375 164.957031 129.910156 170.933594 128.480469 171.550781 C 41.0625 209.722656 9.738281 288.359375 2.21875 311.539062 C 2.011719 312.136719 1.835938 312.742188 1.6875 313.359375 C 1.542969 313.972656 1.429688 314.59375 1.34375 315.21875 C 1.261719 315.847656 1.207031 316.476562 1.183594 317.109375 C 1.164062 317.738281 1.171875 318.371094 1.214844 319 C 1.253906 319.632812 1.328125 320.257812 1.429688 320.882812 C 1.535156 321.503906 1.667969 322.121094 1.832031 322.734375 C 1.996094 323.34375 2.191406 323.941406 2.414062 324.535156 C 2.636719 325.125 2.890625 325.703125 3.171875 326.269531 C 3.453125 326.835938 3.761719 327.382812 4.097656 327.917969 C 4.433594 328.453125 4.796875 328.972656 5.183594 329.46875 C 5.570312 329.96875 5.984375 330.449219 6.417969 330.90625 C 6.851562 331.363281 7.308594 331.796875 7.789062 332.210938 C 8.265625 332.625 8.761719 333.011719 9.28125 333.375 C 9.796875 333.738281 10.332031 334.074219 10.878906 334.382812 C 11.429688 334.695312 11.996094 334.976562 12.574219 335.230469 C 13.152344 335.484375 13.738281 335.707031 14.339844 335.902344 C 14.941406 336.097656 15.550781 336.261719 16.164062 336.398438 C 16.78125 336.53125 17.40625 336.636719 18.03125 336.707031 C 18.660156 336.78125 19.289062 336.824219 19.917969 336.832031 C 20.550781 336.84375 21.179688 336.820312 21.808594 336.769531 C 22.4375 336.714844 23.0625 336.632812 23.683594 336.515625 C 24.304688 336.402344 24.917969 336.257812 25.523438 336.082031 C 26.128906 335.90625 26.726562 335.699219 27.3125 335.464844 C 27.898438 335.230469 28.472656 334.964844 29.03125 334.671875 C 29.589844 334.382812 30.132812 334.0625 30.660156 333.714844 C 31.191406 333.367188 31.699219 332.996094 32.191406 332.601562 C 32.679688 332.203125 33.152344 331.78125 33.601562 331.339844 C 34.050781 330.894531 34.476562 330.429688 34.878906 329.941406 C 35.28125 329.457031 35.660156 328.953125 36.015625 328.429688 C 36.367188 327.902344 36.691406 327.363281 36.992188 326.808594 C 37.292969 326.25 37.5625 325.679688 37.804688 325.097656 C 38.046875 324.515625 38.261719 323.921875 38.445312 323.316406 C 44.714844 303.957031 70.867188 238.308594 143.691406 206.527344 C 151.078125 203.609375 158.640625 201.265625 166.382812 199.5 C 167.285156 207.316406 168.871094 214.988281 171.140625 222.519531 C 173.414062 230.050781 176.332031 237.320312 179.898438 244.332031 C 188.109375 260.535156 212.496094 299.539062 260.535156 311.539062 C 295.820312 320.355469 326.855469 314.890625 347.945312 296.128906 C 348.425781 295.695312 349.175781 295.039062 350.101562 294.15625 C 356.175781 288.371094 370.460938 272.269531 371.949219 247.648438 C 372.136719 244.328125 372.089844 241.011719 371.800781 237.699219 C 371.511719 234.386719 370.988281 231.109375 370.226562 227.871094 C 369.464844 224.632812 368.476562 221.46875 367.261719 218.371094 C 366.046875 215.277344 364.617188 212.285156 362.96875 209.394531 C 362.488281 208.542969 361.949219 207.730469 361.347656 206.960938 Z M 333.9375 245.316406 C 333.246094 256.722656 326.042969 264.417969 323.847656 266.503906 C 323.324219 267.007812 322.894531 267.386719 322.605469 267.65625 C 306.6875 281.824219 280.351562 277.199219 269.761719 274.550781 C 235.996094 266.113281 218.445312 236.050781 213.839844 227.039062 C 208.515625 216.550781 205.257812 205.457031 204.070312 193.757812 C 212.566406 193.144531 221.070312 193.027344 229.582031 193.410156 C 238.09375 193.789062 246.550781 194.667969 254.960938 196.039062 C 263.371094 197.410156 271.671875 199.265625 279.863281 201.605469 C 288.054688 203.949219 296.082031 206.761719 303.949219 210.042969 C 309.789062 212.550781 315.261719 215.699219 320.367188 219.484375 C 324.085938 222.417969 327.453125 225.707031 330.464844 229.359375 C 331.746094 231.816406 332.679688 234.398438 333.269531 237.105469 C 333.859375 239.8125 334.082031 242.550781 333.9375 245.316406 Z M 333.9375 245.316406 " fill-opacity="1" fill-rule="nonzero"/></g></svg>