<svg xmlns="http://www.w3.org/2000/svg" xmlns:xlink="http://www.w3.org/1999/xlink" width="500" zoomAndPan="magnify" viewBox="0 0 375 374.999991" height="500" preserveAspectRatio="xMidYMid meet" version="1.0"><defs><clipPath id="8a804c0648"><path d="M 7 21.820312 L 330 21.820312 L 330 150 L 7 150 Z M 7 21.820312 " clip-rule="nonzero"/></clipPath><clipPath id="73c97c33f8"><path d="M 37 87 L 368.25 87 L 368.25 231 L 37 231 Z M 37 87 " clip-rule="nonzero"/></clipPath><clipPath id="303e09ca45"><path d="M 80 135 L 357 135 L 357 238.570312 L 80 238.570312 Z M 80 135 " clip-rule="nonzero"/></clipPath></defs><g clip-path="url(#8a804c0648)"><path fill="#f4e3d7" d="M 325.039062 21.933594 C 306.597656 23.984375 289.746094 38 272.289062 52.132812 C 254.828125 66.261719 236.820312 80.707031 218.132812 85.421875 C 199.152344 90.207031 178.503906 86.046875 157.269531 81.875 C 136.03125 77.699219 114.164062 73.511719 92.964844 80.042969 C 75.300781 85.488281 54.785156 101.082031 38.160156 115.292969 C 21.539062 129.507812 9.035156 142.453125 9.035156 142.453125 C 8.84375 142.652344 8.671875 142.867188 8.523438 143.097656 C 8.375 143.332031 8.25 143.574219 8.148438 143.832031 C 8.046875 144.085938 7.972656 144.351562 7.921875 144.625 C 7.871094 144.894531 7.851562 145.167969 7.855469 145.445312 C 7.859375 145.71875 7.890625 145.992188 7.949219 146.261719 C 8.007812 146.53125 8.089844 146.792969 8.199219 147.046875 C 8.308594 147.300781 8.441406 147.539062 8.597656 147.765625 C 8.757812 147.996094 8.933594 148.203125 9.132812 148.394531 C 9.328125 148.585938 9.542969 148.757812 9.777344 148.910156 C 10.007812 149.058594 10.25 149.183594 10.507812 149.285156 C 10.761719 149.386719 11.027344 149.460938 11.296875 149.511719 C 11.570312 149.5625 11.84375 149.582031 12.117188 149.578125 C 12.394531 149.574219 12.664062 149.542969 12.933594 149.484375 C 13.203125 149.425781 13.464844 149.34375 13.71875 149.230469 C 13.972656 149.121094 14.210938 148.988281 14.4375 148.832031 C 14.664062 148.675781 14.871094 148.496094 15.0625 148.300781 C 15.0625 148.300781 27.320312 135.617188 43.609375 121.6875 C 59.902344 107.757812 80.457031 92.695312 95.433594 88.078125 C 114.082031 82.332031 134.480469 85.960938 155.652344 90.125 C 176.828125 94.285156 198.734375 98.984375 220.183594 93.574219 C 241.496094 88.199219 260.117188 72.789062 277.5625 58.671875 C 295.007812 44.550781 311.328125 31.917969 325.964844 30.289062 C 326.238281 30.257812 326.507812 30.203125 326.769531 30.117188 C 327.03125 30.035156 327.285156 29.925781 327.523438 29.792969 C 327.765625 29.660156 327.992188 29.503906 328.203125 29.328125 C 328.414062 29.148438 328.605469 28.953125 328.777344 28.738281 C 328.949219 28.523438 329.097656 28.292969 329.226562 28.046875 C 329.351562 27.800781 329.453125 27.546875 329.53125 27.28125 C 329.609375 27.015625 329.660156 26.746094 329.683594 26.472656 C 329.707031 26.195312 329.703125 25.921875 329.671875 25.648438 C 329.640625 25.371094 329.585938 25.105469 329.5 24.839844 C 329.417969 24.578125 329.308594 24.324219 329.175781 24.082031 C 329.042969 23.839844 328.890625 23.613281 328.710938 23.402344 C 328.535156 23.191406 328.339844 23 328.121094 22.828125 C 327.90625 22.65625 327.679688 22.503906 327.433594 22.378906 C 327.1875 22.25 326.933594 22.148438 326.667969 22.074219 C 326.40625 21.996094 326.136719 21.945312 325.859375 21.921875 C 325.585938 21.898438 325.3125 21.902344 325.039062 21.933594 Z M 325.039062 21.933594 " fill-opacity="1" fill-rule="nonzero"/></g><path fill="#f4e3d7" d="M 357.023438 48.851562 C 338.546875 50.90625 318.699219 65.324219 297.238281 80.046875 C 275.773438 94.769531 252.921875 109.976562 231.035156 114.875 C 211.910156 119.15625 191.097656 114.648438 169.804688 110.433594 C 148.507812 106.214844 126.632812 102.292969 105.621094 109.570312 C 82.863281 117.453125 57.25 139.828125 36.75 160.210938 C 16.253906 180.59375 1.125 199.113281 1.125 199.113281 C 0.953125 199.328125 0.800781 199.554688 0.667969 199.796875 C 0.539062 200.042969 0.433594 200.296875 0.355469 200.5625 C 0.277344 200.824219 0.222656 201.09375 0.195312 201.371094 C 0.171875 201.644531 0.171875 201.917969 0.199219 202.195312 C 0.226562 202.46875 0.277344 202.738281 0.359375 203.003906 C 0.441406 203.265625 0.546875 203.519531 0.675781 203.761719 C 0.804688 204.007812 0.957031 204.234375 1.132812 204.449219 C 1.308594 204.660156 1.503906 204.855469 1.714844 205.03125 C 1.929688 205.203125 2.15625 205.355469 2.402344 205.484375 C 2.644531 205.617188 2.898438 205.722656 3.160156 205.800781 C 3.425781 205.878906 3.695312 205.933594 3.96875 205.960938 C 4.242188 205.988281 4.515625 205.984375 4.789062 205.957031 C 5.0625 205.929688 5.332031 205.878906 5.597656 205.796875 C 5.859375 205.714844 6.113281 205.609375 6.355469 205.480469 C 6.597656 205.351562 6.828125 205.195312 7.039062 205.023438 C 7.25 204.847656 7.445312 204.652344 7.621094 204.4375 C 7.621094 204.4375 22.5 186.222656 42.664062 166.179688 C 62.824219 146.132812 88.519531 124.390625 108.363281 117.515625 C 126.757812 111.144531 147.015625 114.492188 168.175781 118.679688 C 189.339844 122.871094 211.304688 127.910156 232.867188 123.082031 C 257.09375 117.660156 280.472656 101.734375 301.976562 86.984375 C 323.484375 72.230469 343.351562 58.832031 357.949219 57.207031 C 358.222656 57.175781 358.492188 57.121094 358.753906 57.035156 C 359.015625 56.953125 359.269531 56.84375 359.511719 56.710938 C 359.75 56.578125 359.976562 56.421875 360.1875 56.246094 C 360.398438 56.066406 360.589844 55.871094 360.761719 55.65625 C 360.933594 55.441406 361.082031 55.210938 361.210938 54.964844 C 361.335938 54.71875 361.441406 54.464844 361.515625 54.199219 C 361.59375 53.933594 361.644531 53.664062 361.667969 53.390625 C 361.691406 53.113281 361.6875 52.839844 361.65625 52.566406 C 361.625 52.292969 361.570312 52.023438 361.488281 51.761719 C 361.402344 51.496094 361.296875 51.246094 361.164062 51.003906 C 361.03125 50.761719 360.875 50.535156 360.695312 50.324219 C 360.519531 50.113281 360.324219 49.921875 360.109375 49.746094 C 359.894531 49.574219 359.664062 49.425781 359.417969 49.296875 C 359.175781 49.171875 358.917969 49.070312 358.65625 48.992188 C 358.390625 48.914062 358.121094 48.863281 357.847656 48.839844 C 357.570312 48.816406 357.296875 48.820312 357.023438 48.851562 Z M 357.023438 48.851562 " fill-opacity="1" fill-rule="nonzero"/><g clip-path="url(#73c97c33f8)"><path fill="#f4e3d7" d="M 363.421875 87.304688 C 345.046875 89.347656 326.710938 102.996094 307.34375 116.835938 C 287.976562 130.679688 267.714844 144.890625 247.648438 149.492188 C 228.59375 153.859375 207.703125 149.128906 186.347656 144.761719 C 164.996094 140.398438 143.046875 136.398438 122.15625 144.214844 C 102.953125 151.402344 82.476562 171.25 66.1875 189.28125 C 49.898438 207.308594 38.078125 223.664062 38.078125 223.664062 C 37.917969 223.886719 37.777344 224.125 37.664062 224.375 C 37.546875 224.625 37.457031 224.886719 37.394531 225.15625 C 37.332031 225.421875 37.292969 225.695312 37.28125 225.972656 C 37.273438 226.246094 37.289062 226.519531 37.332031 226.792969 C 37.375 227.066406 37.445312 227.332031 37.542969 227.589844 C 37.636719 227.847656 37.757812 228.097656 37.902344 228.332031 C 38.046875 228.566406 38.210938 228.785156 38.398438 228.988281 C 38.585938 229.191406 38.789062 229.371094 39.015625 229.535156 C 39.238281 229.695312 39.472656 229.835938 39.722656 229.949219 C 39.976562 230.066406 40.234375 230.15625 40.5 230.21875 C 40.769531 230.28125 41.042969 230.320312 41.316406 230.332031 C 41.59375 230.339844 41.867188 230.324219 42.136719 230.28125 C 42.410156 230.238281 42.675781 230.167969 42.933594 230.070312 C 43.191406 229.976562 43.4375 229.855469 43.671875 229.710938 C 43.90625 229.566406 44.125 229.398438 44.328125 229.210938 C 44.53125 229.023438 44.710938 228.820312 44.875 228.59375 C 44.875 228.59375 56.457031 212.574219 72.410156 194.921875 C 88.359375 177.269531 108.960938 158.128906 125.09375 152.089844 C 143.261719 145.292969 163.46875 148.667969 184.671875 153.003906 C 205.871094 157.335938 227.933594 162.636719 249.519531 157.6875 C 271.992188 152.535156 292.839844 137.535156 312.21875 123.683594 C 331.597656 109.828125 349.640625 97.296875 364.347656 95.664062 C 364.621094 95.632812 364.890625 95.574219 365.152344 95.492188 C 365.414062 95.40625 365.667969 95.300781 365.90625 95.167969 C 366.148438 95.035156 366.375 94.878906 366.585938 94.699219 C 366.796875 94.523438 366.988281 94.324219 367.160156 94.109375 C 367.332031 93.894531 367.480469 93.664062 367.609375 93.417969 C 367.734375 93.175781 367.835938 92.917969 367.914062 92.652344 C 367.992188 92.390625 368.039062 92.117188 368.066406 91.84375 C 368.089844 91.570312 368.085938 91.292969 368.054688 91.019531 C 368.023438 90.746094 367.96875 90.476562 367.882812 90.214844 C 367.800781 89.949219 367.691406 89.699219 367.558594 89.457031 C 367.425781 89.214844 367.273438 88.988281 367.09375 88.777344 C 366.917969 88.566406 366.71875 88.375 366.503906 88.203125 C 366.289062 88.027344 366.058594 87.878906 365.816406 87.75 C 365.570312 87.625 365.316406 87.523438 365.050781 87.445312 C 364.789062 87.367188 364.519531 87.320312 364.242188 87.296875 C 363.96875 87.273438 363.695312 87.273438 363.421875 87.304688 Z M 363.421875 87.304688 " fill-opacity="1" fill-rule="nonzero"/></g><g clip-path="url(#303e09ca45)"><path fill="#fff" d="M 351.90625 136.015625 C 334.097656 137.996094 320.992188 147.703125 309.105469 157.191406 C 297.21875 166.679688 286.414062 175.898438 273.21875 178.976562 C 254.164062 183.417969 233.351562 178.882812 212.042969 174.597656 C 190.734375 170.316406 168.824219 166.292969 147.824219 173.667969 C 132.941406 178.894531 116.929688 193.261719 104.050781 206.304688 C 91.175781 219.34375 81.699219 231.191406 81.699219 231.191406 C 81.527344 231.40625 81.378906 231.636719 81.25 231.882812 C 81.125 232.128906 81.023438 232.382812 80.945312 232.648438 C 80.867188 232.914062 80.816406 233.183594 80.792969 233.457031 C 80.769531 233.734375 80.773438 234.007812 80.804688 234.28125 C 80.835938 234.554688 80.890625 234.824219 80.972656 235.089844 C 81.058594 235.351562 81.164062 235.605469 81.296875 235.847656 C 81.429688 236.089844 81.585938 236.316406 81.761719 236.527344 C 81.941406 236.738281 82.136719 236.929688 82.351562 237.101562 C 82.566406 237.273438 82.796875 237.425781 83.039062 237.550781 C 83.285156 237.679688 83.539062 237.78125 83.804688 237.859375 C 84.070312 237.933594 84.335938 237.984375 84.613281 238.007812 C 84.886719 238.03125 85.160156 238.03125 85.433594 238 C 85.707031 237.96875 85.976562 237.914062 86.238281 237.828125 C 86.5 237.746094 86.753906 237.636719 86.996094 237.503906 C 87.238281 237.371094 87.460938 237.21875 87.671875 237.039062 C 87.882812 236.863281 88.074219 236.664062 88.25 236.449219 C 88.25 236.449219 97.480469 224.914062 110.019531 212.21875 C 122.554688 199.519531 138.660156 185.796875 150.601562 181.601562 C 168.945312 175.160156 189.210938 178.585938 210.394531 182.84375 C 231.574219 187.101562 253.574219 192.191406 275.125 187.164062 C 290.871094 183.492188 302.628906 173.113281 314.332031 163.769531 C 326.039062 154.425781 337.5625 146.070312 352.832031 144.371094 C 353.105469 144.339844 353.375 144.285156 353.636719 144.199219 C 353.898438 144.117188 354.152344 144.007812 354.390625 143.875 C 354.632812 143.742188 354.859375 143.585938 355.070312 143.410156 C 355.28125 143.230469 355.472656 143.035156 355.644531 142.820312 C 355.816406 142.601562 355.964844 142.375 356.09375 142.128906 C 356.21875 141.882812 356.320312 141.628906 356.398438 141.363281 C 356.476562 141.097656 356.523438 140.828125 356.546875 140.550781 C 356.574219 140.277344 356.570312 140.003906 356.539062 139.730469 C 356.507812 139.453125 356.453125 139.183594 356.367188 138.921875 C 356.285156 138.660156 356.175781 138.40625 356.042969 138.164062 C 355.910156 137.921875 355.757812 137.695312 355.578125 137.484375 C 355.402344 137.273438 355.203125 137.082031 354.988281 136.910156 C 354.773438 136.738281 354.542969 136.585938 354.300781 136.460938 C 354.054688 136.332031 353.800781 136.230469 353.535156 136.15625 C 353.273438 136.078125 353.003906 136.027344 352.726562 136.003906 C 352.453125 135.980469 352.179688 135.984375 351.90625 136.015625 Z M 351.90625 136.015625 " fill-opacity="1" fill-rule="nonzero"/></g></svg>